<svg width="24" height="24" viewBox="0 0 24 24" fill="none" xmlns="http://www.w3.org/2000/svg">
<path d="M22.5093 11.5127C22.5113 11.5127 22.5127 11.5127 22.5146 11.5127C22.6485 11.5127 22.7762 11.4565 22.8669 11.3581C22.9591 11.2583 23.0047 11.1244 22.9927 10.989C22.5108 5.68837 18.3141 1.49029 13.013 1.00741C12.8786 0.996846 12.7433 1.04053 12.6434 1.13317C12.5436 1.22533 12.4879 1.35541 12.4893 1.49125C12.5729 8.53573 13.5021 11.4143 22.5093 11.5127ZM22.5093 12.4861C13.5021 12.5845 12.5733 15.4631 12.4898 22.5076C12.4884 22.6434 12.5441 22.7735 12.6439 22.8656C12.7332 22.9477 12.8498 22.9933 12.9698 22.9933C12.9842 22.9933 12.9991 22.9928 13.0135 22.9914C18.3146 22.5085 22.5113 18.3109 22.9927 13.0098C23.0047 12.8744 22.9596 12.7405 22.8669 12.6407C22.7743 12.5408 22.6452 12.4914 22.5093 12.4861ZM10.9553 1.00981C5.67095 1.50661 1.48775 5.70373 1.00823 10.99C0.996227 11.1253 1.04135 11.2592 1.13399 11.3591C1.22471 11.4575 1.35287 11.5132 1.48631 11.5132C1.48823 11.5132 1.49015 11.5132 1.49207 11.5132C10.4695 11.41 11.3964 8.53285 11.4809 1.49317C11.4823 1.35733 11.4261 1.22677 11.3263 1.13461C11.2255 1.04245 11.0906 0.997326 10.9553 1.00981ZM1.49159 12.4856C1.34231 12.4688 1.22519 12.5399 1.13351 12.6397C1.04135 12.7396 0.995747 12.8735 1.00775 13.0088C1.48727 18.2951 5.67095 22.4922 10.9553 22.989C10.9701 22.9904 10.9855 22.9909 11.0004 22.9909C11.1204 22.9909 11.2365 22.9458 11.3258 22.8637C11.4257 22.7716 11.4818 22.641 11.4804 22.5052C11.3959 15.466 10.4695 12.5888 1.49159 12.4856Z" fill="white"/>
</svg>
